<svg xmlns="http://www.w3.org/2000/svg" viewBox="0 0 24 24" fill="#6EA644"><path d="M5.421 23.999c-.775 0-1.431-.602-1.498-1.37L2.047 1.086c-.003-.029-.004-.06-.004-.092.001-.266.106-.516.296-.704.189-.188.432-.291.684-.291h17.93c.029 0 .057.001.086.004.55.048.959.533.912 1.082l-1.87 21.545c-.067.768-.723 1.37-1.494 1.37H5.421zm-2.377-23l1.875 21.543c.022.256.241.457.498.457h13.166c.26 0 .48-.2.502-.457L20.955.998H3.045l-.001-.25v.251z"/><path d="M14.548 9.416c-.022 0-.044-.001-.066-.004l-2.1-.269c-.132-.017-.25-.084-.332-.19-.082-.106-.117-.237-.1-.369.032-.249.245-.436.495-.436.021 0 .042.001.064.004l1.091.14-.939-1.595c-.064-.108-.154-.198-.261-.261-.113-.066-.241-.102-.37-.102-.062 0-.125.008-.186.024-.19.049-.349.17-.448.339l-1.351 2.3c-.09.151-.255.245-.432.245-.089 0-.176-.024-.253-.069-.115-.067-.197-.175-.231-.305-.033-.129-.015-.264.053-.379l1.351-2.3c.31-.528.884-.855 1.497-.855.307 0 .61.083.876.239.254.149.468.363.617.617l.892 1.515.294-.907c.067-.207.258-.346.476-.346.052 0 .103.008.153.024.263.085.408.368.323.63l-.637 1.964c-.033.103-.102.194-.194.257-.007.006-.015.011-.022.016-.015.009-.043.023-.06.029-.015.008-.039.018-.064.025-.012.004-.049.01-.062.012-.012.002-.04.007-.074.007zM14.746 18.31c-.132 0-.256-.051-.35-.143l-1.479-1.449c-.095-.093-.15-.223-.15-.357s.055-.264.15-.357l1.479-1.449c.094-.092.218-.143.35-.143.135 0 .262.053.357.15.094.096.145.222.143.356s-.055.259-.15.352l-.604.592h1.656c.119 0 .238-.03.343-.085.358-.189.496-.635.306-.993l-1.31-2.472c-.129-.243-.036-.547.208-.676.071-.038.152-.058.234-.058.186 0 .355.102.442.266l1.31 2.474c.447.846.123 1.898-.723 2.345-.249.131-.529.201-.81.201h-1.656l.604.592c.095.093.148.218.15.352s-.049.26-.143.355c-.095.093-.221.147-.357.147zM7.931 16.861c-.464 0-.899-.181-1.226-.508-.327-.327-.508-.763-.507-1.226 0-.288.073-.574.21-.827l.922-1.698-.843.179c-.035.007-.069.011-.104.011-.235 0-.441-.167-.489-.396-.028-.131-.003-.264.07-.376.073-.112.185-.189.315-.217l1.904-.405c.017-.004.046-.007.063-.007.005 0 .02.001.025.001.002-.001.017-.002.032-.002.012 0 .042.002.053.004.045.006.081.02.102.028.004 0 .033.008.065.025.011.006.023.014.034.022.026.017.049.039.063.052.02.017.042.037.064.066.023.03.036.059.043.075.011.022.024.046.034.076.006.015.011.03.013.045l.412 1.859c.059.269-.111.536-.38.596-.036.009-.072.012-.107.012-.232 0-.438-.165-.488-.392l-.124-.558-.801 1.475c-.058.107-.089.228-.089.35 0 .196.076.38.215.519s.323.215.519.215h2.253c.276 0 .5.224.5.5s-.224.5-.5.5H7.931z"/></svg>